<?xml version="1.0" encoding="UTF-8" standalone="no"?>
<svg
   width="16"
   height="16"
   viewBox="0 0 16 16"
   id="svg2"
   version="1.1"
   inkscape:version="1.1.1 (3bf5ae0d25, 2021-09-20)"
   sodipodi:docname="checkbox.svg"
   xmlns:inkscape="http://www.inkscape.org/namespaces/inkscape"
   xmlns:sodipodi="http://sodipodi.sourceforge.net/DTD/sodipodi-0.dtd"
   xmlns="http://www.w3.org/2000/svg"
   xmlns:svg="http://www.w3.org/2000/svg"
   xmlns:rdf="http://www.w3.org/1999/02/22-rdf-syntax-ns#"
   xmlns:cc="http://creativecommons.org/ns#"
   xmlns:dc="http://purl.org/dc/elements/1.1/">
  <defs
     id="defs4" />
  <sodipodi:namedview
     id="base"
     pagecolor="#ffffff"
     bordercolor="#666666"
     borderopacity="1.0"
     inkscape:pageopacity="0.0"
     inkscape:pageshadow="2"
     inkscape:zoom="22.4"
     inkscape:cx="7.2321429"
     inkscape:cy="2.5"
     inkscape:document-units="px"
     inkscape:current-layer="layer1"
     showgrid="true"
     units="px"
     inkscape:snap-bbox="true"
     inkscape:bbox-paths="true"
     inkscape:bbox-nodes="true"
     inkscape:snap-global="false"
     inkscape:window-width="1920"
     inkscape:window-height="996"
     inkscape:window-x="0"
     inkscape:window-y="0"
     inkscape:window-maximized="1"
     inkscape:document-rotation="0"
     inkscape:pagecheckerboard="0">
    <inkscape:grid
       type="xygrid"
       id="grid3336" />
  </sodipodi:namedview>
  <metadata
     id="metadata7">
    <rdf:RDF>
      <cc:Work
         rdf:about="">
        <dc:format>image/svg+xml</dc:format>
        <dc:type
           rdf:resource="http://purl.org/dc/dcmitype/StillImage" />
      </cc:Work>
    </rdf:RDF>
  </metadata>
  <g
     inkscape:label="Layer 1"
     inkscape:groupmode="layer"
     id="layer1"
     transform="translate(0,-1036.3622)">
    <path
       id="path1334"
       style="color:#000000;opacity:1;fill:#000000;fill-opacity:1;fill-rule:evenodd;-inkscape-stroke:none"
       d="M 3.3242188,0 C 1.4916326,0 0,1.4917188 0,3.3242188 V 12.677734 C 0,14.510334 1.4916327,16 3.3242188,16 H 12.675781 C 14.508367,16 16,14.510334 16,12.677734 V 3.3242188 C 16,1.4917188 14.508367,0 12.675781,0 Z m 0.5839843,1 h 8.1835939 c 0.100219,0 0.199232,0.00567 0.296875,0.015625 0.09764,0.00995 0.192534,0.023558 0.287109,0.042969 0.09457,0.01941 0.188282,0.043887 0.279297,0.072266 0.09102,0.028378 0.180615,0.060802 0.267578,0.097656 0.08696,0.036854 0.171486,0.078208 0.253906,0.1230469 0.08242,0.044839 0.162849,0.094153 0.240235,0.1464844 0.07739,0.052331 0.150796,0.108636 0.222656,0.1679687 0.07186,0.059333 0.14119,0.1216578 0.207031,0.1875 0.06584,0.065842 0.128168,0.1351712 0.1875,0.2070313 0.05933,0.07186 0.115638,0.14527 0.167969,0.2226562 0.05233,0.077386 0.101646,0.1578136 0.146485,0.2402344 0.04484,0.082421 0.08619,0.1669426 0.123046,0.2539063 0.03685,0.086964 0.06928,0.1765632 0.09766,0.2675781 0.02838,0.091015 0.05285,0.1847223 0.07226,0.2792969 0.01941,0.094574 0.03302,0.1894669 0.04297,0.2871093 C 14.994326,3.7089706 15,3.8079844 15,3.9082031 V 12.09375 c 0,0.100219 -0.0057,0.199246 -0.01563,0.296875 -0.01,0.09763 -0.02356,0.192559 -0.04297,0.287109 -0.01941,0.09455 -0.04389,0.188317 -0.07226,0.279297 -0.02838,0.09098 -0.0608,0.180657 -0.09766,0.267578 -0.03685,0.08692 -0.07821,0.171534 -0.123046,0.253907 -0.04484,0.08237 -0.09415,0.160947 -0.146485,0.238281 -0.05233,0.07733 -0.108636,0.152805 -0.167969,0.224609 -0.05933,0.0718 -0.121658,0.141246 -0.1875,0.207032 -0.06584,0.06578 -0.135171,0.128222 -0.207031,0.1875 -0.07186,0.05928 -0.14527,0.115689 -0.222656,0.167968 -0.07739,0.05228 -0.157814,0.09974 -0.240235,0.144532 -0.08242,0.04479 -0.166942,0.08623 -0.253906,0.123046 -0.08696,0.03681 -0.176563,0.06931 -0.267578,0.09766 -0.09102,0.02834 -0.184722,0.05288 -0.279297,0.07226 -0.09458,0.01939 -0.189466,0.03303 -0.287109,0.04297 C 12.291029,14.994313 12.192016,15 12.091797,15 H 3.9082031 C 3.8079836,15 3.7089711,14.9943 3.6113281,14.98437 3.5136851,14.97447 3.4187936,14.96079 3.3242188,14.9414 3.2296438,14.92201 3.1359369,14.89748 3.0449219,14.86914 2.9539069,14.8408 2.8643074,14.80829 2.7773438,14.77148 2.6903798,14.73467 2.6058581,14.69322 2.5234375,14.648434 2.4410165,14.603644 2.360589,14.556184 2.2832031,14.503902 2.2058171,14.451622 2.1324065,14.395211 2.0605469,14.335934 1.9886869,14.276654 1.9193573,14.214219 1.8535156,14.148434 1.7876736,14.082644 1.7253478,14.013207 1.6660156,13.941402 1.6066836,13.869602 1.5503779,13.794126 1.4980469,13.716793 1.4457159,13.639463 1.3964007,13.560884 1.3515625,13.478512 1.3067245,13.396142 1.2653695,13.311527 1.2285156,13.224605 1.1916616,13.137685 1.1592376,13.048008 1.1308596,12.957027 1.1024816,12.866047 1.0780036,12.77228 1.0585936,12.67773 1.0391836,12.58318 1.0255756,12.48825 1.0156246,12.390621 1.0056741,12.292996 1,12.193969 1,12.09375 V 3.9082031 C 1,3.8079844 1.00567,3.7089706 1.015625,3.6113281 1.025575,3.5136861 1.039184,3.4187933 1.058594,3.3242188 1.078004,3.2296438 1.102482,3.1359368 1.13086,3.0449219 1.159238,2.9539069 1.191662,2.8643074 1.228516,2.7773438 1.26537,2.6903798 1.306725,2.6058583 1.3515629,2.5234375 1.3964009,2.4410165 1.4457159,2.3605894 1.4980473,2.2832031 1.5503783,2.2058171 1.6066838,2.1324069 1.666016,2.0605469 c 0.059332,-0.07186 0.1216583,-0.1411891 0.1875,-0.2070313 0.065842,-0.065842 0.1351716,-0.1281673 0.2070313,-0.1875 0.07186,-0.059333 0.1452703,-0.1156372 0.2226562,-0.1679687 0.077386,-0.052332 0.1578138,-0.1016457 0.2402344,-0.1464844 0.082421,-0.044839 0.1669426,-0.086193 0.2539063,-0.1230469 0.086964,-0.036854 0.176563,-0.069278 0.2675781,-0.097656 0.091015,-0.028378 0.184722,-0.052855 0.2792969,-0.072266 C 3.4187936,1.0391833 3.5136851,1.025576 3.6113281,1.015625 3.7089711,1.005674 3.8079836,1 3.9082031,1 Z"
       transform="translate(0,1036.3622)" />
    <path
       style="color:#000000;fill:#000000;fill-rule:evenodd;stroke-linecap:round;stroke-linejoin:round;-inkscape-stroke:none"
       d="m 12.818387,1039.7378 a 1.05,1.05 0 0 0 -0.722657,0.3496 l -5.7050785,6.4102 -2.6171875,-2.084 a 1.05,1.05 0 0 0 -1.4746093,0.1679 1.05,1.05 0 0 0 0.1660156,1.4747 l 3.3945312,2.7031 a 1.050105,1.050105 0 0 0 1.4394531,-0.1231 l 6.3652354,-7.1523 a 1.05,1.05 0 0 0 -0.08594,-1.4824 1.05,1.05 0 0 0 -0.759765,-0.2637 z"
       id="path4148" />
  </g>
</svg>
