<?xml version="1.0" encoding="UTF-8" standalone="no"?>
<svg
   width="32"
   height="16"
   viewBox="0 0 32 16"
   id="svg4140"
   version="1.1"
   inkscape:version="1.1.1 (3bf5ae0d25, 2021-09-20, custom)"
   sodipodi:docname="dark-switch-off.svg"
   xmlns:inkscape="http://www.inkscape.org/namespaces/inkscape"
   xmlns:sodipodi="http://sodipodi.sourceforge.net/DTD/sodipodi-0.dtd"
   xmlns="http://www.w3.org/2000/svg"
   xmlns:svg="http://www.w3.org/2000/svg"
   xmlns:rdf="http://www.w3.org/1999/02/22-rdf-syntax-ns#"
   xmlns:cc="http://creativecommons.org/ns#"
   xmlns:dc="http://purl.org/dc/elements/1.1/">
  <defs
     id="defs4142" />
  <sodipodi:namedview
     id="base"
     pagecolor="#ffffff"
     bordercolor="#666666"
     borderopacity="1.0"
     inkscape:pageopacity="0.0"
     inkscape:pageshadow="2"
     inkscape:zoom="15.839192"
     inkscape:cx="11.55362"
     inkscape:cy="1.1048543"
     inkscape:document-units="px"
     inkscape:current-layer="layer1"
     showgrid="false"
     units="px"
     inkscape:window-width="1920"
     inkscape:window-height="1010"
     inkscape:window-x="0"
     inkscape:window-y="32"
     inkscape:window-maximized="1"
     inkscape:document-rotation="0"
     inkscape:pagecheckerboard="0">
    <inkscape:grid
       type="xygrid"
       id="grid4688" />
  </sodipodi:namedview>
  <metadata
     id="metadata4145">
    <rdf:RDF>
      <cc:Work
         rdf:about="">
        <dc:format>image/svg+xml</dc:format>
        <dc:type
           rdf:resource="http://purl.org/dc/dcmitype/StillImage" />
      </cc:Work>
    </rdf:RDF>
  </metadata>
  <g
     inkscape:label="Layer 1"
     inkscape:groupmode="layer"
     id="layer1"
     transform="translate(0,-1036.3622)">
    <path
       id="path1295"
       style="opacity:1;fill:#ffffff;stroke-width:2.78521"
       d="M 3.015625,1036.3622 C 1.344994,1036.3622 0,1037.7072 0,1039.3778 v 9.9688 c 0,1.6706 1.344994,3.0156 3.015625,3.0156 h 25.96875 c 1.670631,0 3.015625,-1.345 3.015625,-3.0156 v -9.9688 c 0,-1.6706 -1.344994,-3.0156 -3.015625,-3.0156 z m 0.810547,1 h 24.347656 c 0.09789,0 0.193793,0 0.289063,0.014 0.09527,0.01 0.189065,0.022 0.28125,0.039 0.09218,0.018 0.182851,0.041 0.271484,0.066 0.08863,0.026 0.175151,0.055 0.259766,0.088 0.08461,0.033 0.167917,0.071 0.248047,0.1114 0.08013,0.041 0.157244,0.084 0.232421,0.1308 0.07518,0.047 0.147038,0.099 0.216797,0.1524 0.06976,0.054 0.137297,0.1103 0.201172,0.1699 0.06387,0.06 0.124117,0.1224 0.181641,0.1875 0.05752,0.065 0.111403,0.1329 0.162109,0.2031 0.05071,0.07 0.09916,0.142 0.142578,0.2168 0.04342,0.075 0.08347,0.1515 0.119141,0.2305 0.03567,0.079 0.0663,0.1594 0.09375,0.2422 0.02745,0.083 0.05154,0.1678 0.07031,0.2539 0.01877,0.086 0.03335,0.1728 0.04297,0.2617 0.0096,0.089 0.01367,0.1801 0.01367,0.2715 v 8.7226 c 0,0.091 -0.0041,0.1826 -0.01367,0.2715 -0.0096,0.089 -0.0242,0.1757 -0.04297,0.2617 -0.01877,0.086 -0.04286,0.1712 -0.07031,0.2539 -0.02745,0.083 -0.05808,0.1633 -0.09375,0.2422 -0.03567,0.079 -0.07572,0.1557 -0.119141,0.2305 -0.04342,0.075 -0.09187,0.1466 -0.142578,0.2168 -0.05071,0.07 -0.104586,0.138 -0.162109,0.2031 -0.05752,0.065 -0.117766,0.1279 -0.181641,0.1875 -0.06387,0.06 -0.131412,0.1162 -0.201172,0.1699 -0.06976,0.054 -0.141619,0.1051 -0.216797,0.1524 -0.07518,0.047 -0.152292,0.09 -0.232421,0.1308 -0.08013,0.041 -0.163433,0.078 -0.248047,0.1114 -0.08461,0.033 -0.171133,0.062 -0.259766,0.088 -0.08863,0.026 -0.1793,0.049 -0.271484,0.066 -0.09219,0.017 -0.18598,0.03 -0.28125,0.039 -0.09527,0.01 -0.191177,0.014 -0.289066,0.014 H 3.826172 c -0.09789,0 -0.193793,0 -0.289063,-0.014 -0.09527,-0.01 -0.189065,-0.022 -0.28125,-0.039 -0.09219,-0.018 -0.182851,-0.041 -0.271484,-0.066 -0.08863,-0.026 -0.175151,-0.055 -0.259766,-0.088 -0.08461,-0.033 -0.167917,-0.071 -0.248046,-0.1114 -0.08013,-0.04 -0.157245,-0.083 -0.232422,-0.1308 -0.07518,-0.047 -0.147038,-0.099 -0.216797,-0.1524 -0.06976,-0.054 -0.137297,-0.1103 -0.201172,-0.1699 -0.06387,-0.06 -0.124117,-0.1224 -0.181641,-0.1875 -0.05752,-0.065 -0.111403,-0.1329 -0.162109,-0.2031 -0.05071,-0.07 -0.09916,-0.142 -0.142578,-0.2168 -0.04342,-0.075 -0.08347,-0.1515 -0.119141,-0.2305 -0.03567,-0.079 -0.0663,-0.1594 -0.09375,-0.2422 -0.02745,-0.083 -0.05154,-0.1678 -0.07031,-0.2539 -0.01877,-0.086 -0.03335,-0.1728 -0.04297,-0.2617 -0.0096,-0.089 -0.01367,-0.1801 -0.01367,-0.2715 v -8.7226 c 0,-0.091 0.004,-0.1826 0.01367,-0.2715 0.0096,-0.089 0.0242,-0.1757 0.04297,-0.2617 0.01877,-0.086 0.04286,-0.1712 0.07031,-0.2539 0.02745,-0.083 0.05808,-0.1633 0.09375,-0.2422 0.03567,-0.079 0.07572,-0.1557 0.119141,-0.2305 0.04342,-0.075 0.09187,-0.1466 0.142578,-0.2168 0.05071,-0.07 0.104586,-0.138 0.162109,-0.2031 0.05752,-0.065 0.117766,-0.1279 0.181641,-0.1875 0.06387,-0.06 0.131412,-0.1162 0.201172,-0.1699 0.06976,-0.054 0.141619,-0.1051 0.216797,-0.1524 0.07518,-0.047 0.152292,-0.09 0.232421,-0.1308 0.08013,-0.041 0.163433,-0.078 0.248047,-0.1114 0.08461,-0.033 0.171133,-0.062 0.259766,-0.088 0.08863,-0.026 0.1793,-0.049 0.271484,-0.066 0.09219,-0.017 0.18598,-0.03 0.28125,-0.039 0.09527,-0.01 0.191174,-0.014 0.289063,-0.014 z" />
    <rect
       style="opacity:1;fill:#ffffff;stroke-width:3.18342"
       id="rect1560"
       width="12"
       height="12"
       x="2"
       y="1038.3622"
       rx="2.5779305"
       ry="2.5779305" />
  </g>
</svg>
