<?xml version="1.0" encoding="UTF-8" standalone="no"?>
<svg
   width="16"
   height="16"
   viewBox="0 0 16 16"
   id="svg4140"
   version="1.1"
   inkscape:version="1.1.1 (3bf5ae0d25, 2021-09-20)"
   sodipodi:docname="radiobutton.svg"
   xmlns:inkscape="http://www.inkscape.org/namespaces/inkscape"
   xmlns:sodipodi="http://sodipodi.sourceforge.net/DTD/sodipodi-0.dtd"
   xmlns="http://www.w3.org/2000/svg"
   xmlns:svg="http://www.w3.org/2000/svg"
   xmlns:rdf="http://www.w3.org/1999/02/22-rdf-syntax-ns#"
   xmlns:cc="http://creativecommons.org/ns#"
   xmlns:dc="http://purl.org/dc/elements/1.1/">
  <defs
     id="defs4142" />
  <sodipodi:namedview
     id="base"
     pagecolor="#ffffff"
     bordercolor="#666666"
     borderopacity="1.0"
     inkscape:pageopacity="0.0"
     inkscape:pageshadow="2"
     inkscape:zoom="15.839192"
     inkscape:cx="-5.1770318"
     inkscape:cy="17.109459"
     inkscape:document-units="px"
     inkscape:current-layer="layer1"
     showgrid="true"
     units="px"
     inkscape:window-width="1920"
     inkscape:window-height="996"
     inkscape:window-x="0"
     inkscape:window-y="0"
     inkscape:window-maximized="1"
     inkscape:document-rotation="0"
     inkscape:pagecheckerboard="0">
    <inkscape:grid
       type="xygrid"
       id="grid4688" />
  </sodipodi:namedview>
  <metadata
     id="metadata4145">
    <rdf:RDF>
      <cc:Work
         rdf:about="">
        <dc:format>image/svg+xml</dc:format>
        <dc:type
           rdf:resource="http://purl.org/dc/dcmitype/StillImage" />
      </cc:Work>
    </rdf:RDF>
  </metadata>
  <g
     inkscape:label="Layer 1"
     inkscape:groupmode="layer"
     id="layer1"
     transform="translate(0,-1036.3622)">
    <path
       id="path1222"
       style="color:#000000;opacity:1;fill:#000000;fill-opacity:1;stroke-linecap:round;stroke-linejoin:round;-inkscape-stroke:none"
       d="M 8,0 C 3.5876487,0 0,3.5877 0,8 c 0,4.4124 3.5876487,8 8,8 4.412351,0 8,-3.5876 8,-8 C 16,3.5877 12.412351,0 8,0 Z m 0,1 c 0.1206502,0 0.240208,0.00371 0.359375,0.00977 0.119167,0.00606 0.2379325,0.015376 0.3554688,0.027344 0.1175362,0.011967 0.2338513,0.025239 0.3496093,0.042969 0.115758,0.01773 0.231871,0.039156 0.3457031,0.0625 0.1138322,0.023345 0.2261319,0.049313 0.3378907,0.078125 0.1117587,0.028812 0.2224935,0.059619 0.3320311,0.09375 0.109538,0.034131 0.21705,0.072025 0.324219,0.1113281 0.107169,0.039304 0.213706,0.080672 0.318359,0.125 0.104653,0.044328 0.208558,0.09142 0.310547,0.140625 0.10199,0.049205 0.201603,0.1003624 0.300781,0.1542969 0.09918,0.053935 0.19675,0.1094523 0.292969,0.1679688 0.09622,0.058516 0.192043,0.1206429 0.285156,0.1835937 0.09311,0.062951 0.183578,0.128075 0.273438,0.1953125 0.08986,0.067238 0.179167,0.1356545 0.265625,0.2070313 0.08646,0.071377 0.170997,0.1453347 0.253906,0.2207031 0.08291,0.075368 0.162975,0.1532094 0.242188,0.2324219 0.07921,0.079213 0.157053,0.1592784 0.232422,0.2421875 0.07537,0.082909 0.149326,0.1674482 0.220703,0.2539062 0.07138,0.086458 0.139793,0.1757656 0.207031,0.265625 0.06724,0.089859 0.132362,0.1803242 0.195312,0.2734375 0.06295,0.093113 0.125078,0.1889367 0.183594,0.2851563 0.05852,0.09622 0.114034,0.1937904 0.167969,0.2929687 0.05393,0.099178 0.105092,0.1987918 0.154297,0.3007813 0.04921,0.1019895 0.0963,0.2058937 0.140625,0.3105469 0.04433,0.1046531 0.0857,0.2111901 0.125,0.3183593 0.0393,0.1071692 0.0772,0.2146811 0.111328,0.3242188 0.03413,0.1095377 0.06494,0.2202726 0.09375,0.3320312 0.02881,0.1117587 0.05478,0.2240586 0.07813,0.3378907 0.02334,0.113832 0.04477,0.2299452 0.0625,0.3457031 0.01773,0.1157578 0.031,0.2320732 0.04297,0.3496093 0.01197,0.1175362 0.02129,0.236302 0.02734,0.3554688 C 14.996292,7.7597918 15,7.87935 15,8 15,8.1206531 14.9963,8.2402054 14.9902,8.359375 14.9841,8.4785446 14.97482,8.5973052 14.96286,8.7148438 14.95089,8.8323823 14.93762,8.9486932 14.91989,9.0644531 14.90216,9.180213 14.88073,9.2963225 14.85739,9.4101562 14.83405,9.52399 14.80808,9.6362868 14.77926,9.7480469 c -0.02881,0.11176 -0.05962,0.2224924 -0.09375,0.3320311 -0.03413,0.109539 -0.07203,0.217049 -0.111328,0.324219 -0.0393,0.10717 -0.08067,0.213706 -0.125,0.318359 -0.04433,0.104654 -0.09142,0.208557 -0.140625,0.310547 -0.0492,0.10199 -0.100363,0.201603 -0.154297,0.300781 -0.05393,0.09918 -0.109452,0.19675 -0.167969,0.292969 -0.05852,0.09622 -0.120643,0.192043 -0.183594,0.285156 -0.06295,0.09311 -0.128075,0.183579 -0.195312,0.273438 -0.06724,0.08986 -0.135655,0.179167 -0.207031,0.265625 -0.07138,0.08646 -0.145335,0.170998 -0.220703,0.253906 -0.07537,0.08291 -0.15321,0.162976 -0.232422,0.242188 -0.07921,0.07921 -0.159279,0.157054 -0.242188,0.232422 -0.08291,0.07537 -0.167448,0.149327 -0.253906,0.220703 -0.08646,0.07137 -0.175766,0.139794 -0.265625,0.207031 -0.08986,0.06724 -0.180324,0.132363 -0.273438,0.195312 -0.09311,0.06295 -0.188936,0.125079 -0.285156,0.183594 -0.09622,0.05852 -0.19379,0.114035 -0.292969,0.167969 -0.09918,0.05393 -0.198791,0.105093 -0.300781,0.154297 -0.101989,0.0492 -0.205894,0.0963 -0.310547,0.140625 -0.104653,0.04433 -0.21119,0.0857 -0.318359,0.125 -0.107169,0.0393 -0.214681,0.0772 -0.324219,0.111328 -0.1095376,0.03413 -0.2202724,0.06494 -0.3320311,0.09375 -0.1117588,0.02881 -0.2240585,0.05478 -0.3378907,0.07813 -0.1138321,0.02334 -0.2299451,0.04477 -0.3457031,0.0625 -0.115758,0.01773 -0.2320731,0.031 -0.3496093,0.04297 -0.1175363,0.01197 -0.2363018,0.02129 -0.3554688,0.02734 C 8.240208,14.996292 8.1206502,15 8,15 7.8793498,15 7.759792,14.9963 7.640625,14.9902 7.521458,14.9841 7.4026926,14.97482 7.2851562,14.96286 7.1676199,14.95089 7.0513049,14.93762 6.9355469,14.91989 6.8197889,14.90216 6.7036759,14.88073 6.5898438,14.85739 6.4760116,14.83405 6.3637119,14.80808 6.2519531,14.77926 6.1401944,14.75045 6.0294597,14.71964 5.9199219,14.68551 5.8103841,14.65138 5.7028724,14.61348 5.5957031,14.574182 5.4885339,14.534882 5.3819969,14.493512 5.2773438,14.449182 5.1726906,14.404892 5.0687864,14.357798 4.9667969,14.308594 4.8648073,14.25939 4.765194,14.20823 4.6660156,14.154297 4.5668373,14.100363 4.4692665,14.044844 4.3730469,13.986328 4.2768273,13.927813 4.1810039,13.865684 4.0878906,13.802734 3.9947774,13.739785 3.9043125,13.674658 3.8144531,13.607422 3.7245937,13.540185 3.6352861,13.471766 3.5488281,13.400391 3.4623702,13.329015 3.3778309,13.255055 3.2949219,13.179688 3.2120129,13.10432 3.1319468,13.026477 3.0527344,12.947266 2.9735219,12.868054 2.8956808,12.787986 2.8203125,12.705078 2.7449442,12.62217 2.6709861,12.537629 2.5996094,12.451172 2.5282327,12.364714 2.4598156,12.275406 2.3925781,12.185547 2.3253406,12.095688 2.2602163,12.005222 2.1972656,11.912109 2.1343149,11.818996 2.0721883,11.723173 2.0136719,11.626953 1.9551555,11.530734 1.8996376,11.433163 1.8457031,11.333984 1.7917686,11.234806 1.7406113,11.135193 1.6914062,11.033203 1.6422012,10.931213 1.5951093,10.82731 1.5507812,10.722656 1.5064532,10.618003 1.4650847,10.511467 1.4257812,10.404297 1.3864778,10.297127 1.3485845,10.189617 1.3144531,10.080078 1.2803217,9.9705393 1.2495148,9.8598069 1.2207031,9.7480469 1.1918914,9.6362868 1.1659226,9.52399 1.1425781,9.4101562 1.1192336,9.2963225 1.0978078,9.180213 1.0800781,9.0644531 1.0623484,8.9486932 1.0490767,8.8323823 1.0371094,8.7148438 1.025142,8.5973052 1.0158231,8.4785446 1.0097656,8.359375 1.0037082,8.2402054 1,8.1206531 1,8 1,7.87935 1.00371,7.7597918 1.00977,7.640625 1.01583,7.5214582 1.025146,7.4026924 1.037114,7.2851562 1.049081,7.1676201 1.062353,7.0513047 1.080083,6.9355469 1.097813,6.819789 1.119239,6.7036758 1.142583,6.5898438 1.165928,6.4760117 1.191896,6.3637118 1.220708,6.2519531 1.24952,6.1401945 1.280327,6.0294596 1.314458,5.9199219 1.348589,5.8103842 1.386483,5.7028723 1.4257861,5.5957031 1.4650891,5.4885339 1.5064581,5.3819969 1.5507861,5.2773438 1.5951141,5.1726906 1.6422061,5.0687864 1.6914111,4.9667969 1.7406161,4.8648074 1.7917735,4.7651939 1.845708,4.6660156 1.899642,4.5668376 1.9551604,4.4692665 2.0136768,4.3730469 2.0721928,4.2768269 2.1343198,4.1810039 2.1972705,4.0878906 2.2602215,3.9947776 2.3253455,3.9043125 2.392583,3.8144531 2.459821,3.7245941 2.5282376,3.6352861 2.5996143,3.5488281 2.6709861,3.4623701 2.7449442,3.3778309 2.8203125,3.2949219 2.8956808,3.2120128 2.9735219,3.1319469 3.0527344,3.0527344 3.1319468,2.9735219 3.2120129,2.8956809 3.2949219,2.8203125 3.3778309,2.7449441 3.4623702,2.6709861 3.5488281,2.5996094 3.6352861,2.5282326 3.7245937,2.4598157 3.8144531,2.3925781 3.9043125,2.3253406 3.9947774,2.2602164 4.0878906,2.1972656 4.1810039,2.1343148 4.2768273,2.0721883 4.3730469,2.0136719 4.4692665,1.9551554 4.5668373,1.8996377 4.6660156,1.8457031 4.765194,1.7917686 4.8648073,1.7406114 4.9667969,1.6914062 c 0.1019895,-0.049205 0.2058937,-0.096297 0.3105469,-0.140625 0.1046531,-0.044328 0.2111901,-0.085696 0.3183593,-0.125 0.1071693,-0.039304 0.214681,-0.077197 0.3242188,-0.1113281 0.1095378,-0.034131 0.2202725,-0.064938 0.3320312,-0.09375 0.1117588,-0.028812 0.2240585,-0.05478 0.3378907,-0.078125 0.1138321,-0.023344 0.2299451,-0.04477 0.3457031,-0.0625 0.115758,-0.01773 0.232073,-0.031001 0.3496093,-0.042969 C 7.4026926,1.025142 7.521458,1.0158231 7.640625,1.0097656 7.759792,1.0037082 7.8793498,1 8,1 Z"
       transform="translate(0,1036.3622)" />
    <circle
       style="fill:#000000;fill-opacity:1;stroke:none;stroke-width:1;stroke-linecap:round;stroke-linejoin:round;stroke-miterlimit:4;stroke-dasharray:none;stroke-opacity:1"
       id="path4741"
       cx="8"
       cy="1044.3622"
       r="4" />
  </g>
</svg>
