<?xml version="1.0" encoding="UTF-8" standalone="no"?>
<svg
   width="32"
   height="16"
   viewBox="0 0 32 16"
   id="svg4140"
   version="1.1"
   inkscape:version="1.1.1 (3bf5ae0d25, 2021-09-20, custom)"
   sodipodi:docname="switch-off.svg"
   xmlns:inkscape="http://www.inkscape.org/namespaces/inkscape"
   xmlns:sodipodi="http://sodipodi.sourceforge.net/DTD/sodipodi-0.dtd"
   xmlns="http://www.w3.org/2000/svg"
   xmlns:svg="http://www.w3.org/2000/svg"
   xmlns:rdf="http://www.w3.org/1999/02/22-rdf-syntax-ns#"
   xmlns:cc="http://creativecommons.org/ns#"
   xmlns:dc="http://purl.org/dc/elements/1.1/">
  <defs
     id="defs4142" />
  <sodipodi:namedview
     id="base"
     pagecolor="#ffffff"
     bordercolor="#666666"
     borderopacity="1.0"
     inkscape:pageopacity="0.0"
     inkscape:pageshadow="2"
     inkscape:zoom="15.839192"
     inkscape:cx="11.55362"
     inkscape:cy="1.1048543"
     inkscape:document-units="px"
     inkscape:current-layer="layer1"
     showgrid="false"
     units="px"
     inkscape:window-width="1920"
     inkscape:window-height="1010"
     inkscape:window-x="0"
     inkscape:window-y="32"
     inkscape:window-maximized="1"
     inkscape:document-rotation="0"
     inkscape:pagecheckerboard="0">
    <inkscape:grid
       type="xygrid"
       id="grid4688" />
  </sodipodi:namedview>
  <metadata
     id="metadata4145">
    <rdf:RDF>
      <cc:Work
         rdf:about="">
        <dc:format>image/svg+xml</dc:format>
        <dc:type
           rdf:resource="http://purl.org/dc/dcmitype/StillImage" />
      </cc:Work>
    </rdf:RDF>
  </metadata>
  <g
     inkscape:label="Layer 1"
     inkscape:groupmode="layer"
     id="layer1"
     transform="translate(0,-1036.3622)">
    <path
       id="path1295"
       style="opacity:1;fill:#000000;stroke-width:2.78521"
       d="M 3.015625,0 C 1.344994,0 0,1.344994 0,3.015625 v 9.96875 C 0,14.655006 1.344994,16 3.015625,16 h 25.96875 C 30.655006,16 32,14.655006 32,12.984375 V 3.015625 C 32,1.344994 30.655006,0 28.984375,0 Z M 3.8261719,1 H 28.173828 c 0.09789,0 0.193793,0.0047 0.289063,0.013672 0.09527,0.00898 0.189065,0.021545 0.28125,0.039063 0.09218,0.017517 0.182851,0.040784 0.271484,0.066406 0.08863,0.025622 0.175151,0.054598 0.259766,0.087891 0.08461,0.033292 0.167917,0.070802 0.248047,0.1113282 0.08013,0.040526 0.157244,0.083534 0.232421,0.1308594 0.07518,0.047325 0.147038,0.098655 0.216797,0.1523437 0.06976,0.053689 0.137297,0.1103053 0.201172,0.1699219 0.06387,0.059617 0.124117,0.122391 0.181641,0.1875 0.05752,0.065109 0.111403,0.132959 0.162109,0.203125 0.05071,0.070166 0.09916,0.1420094 0.142578,0.2167968 0.04342,0.074788 0.08347,0.1514954 0.119141,0.2304688 0.03567,0.078973 0.0663,0.1594636 0.09375,0.2421875 0.02745,0.082724 0.05154,0.1678673 0.07031,0.2539063 0.01877,0.086039 0.03335,0.1728001 0.04297,0.2617187 C 30.995946,3.4561061 31,3.5473092 31,3.6386719 v 8.7226561 c 0,0.09136 -0.0041,0.182566 -0.01367,0.271484 -0.0096,0.08892 -0.0242,0.17568 -0.04297,0.261719 -0.01877,0.08604 -0.04286,0.171183 -0.07031,0.253907 -0.02745,0.08272 -0.05808,0.163214 -0.09375,0.242187 -0.03567,0.07897 -0.07572,0.155681 -0.119141,0.230469 -0.04342,0.07479 -0.09187,0.146631 -0.142578,0.216797 -0.05071,0.07017 -0.104586,0.138016 -0.162109,0.203125 -0.05752,0.06511 -0.117766,0.127883 -0.181641,0.1875 -0.06387,0.05962 -0.131412,0.116233 -0.201172,0.169922 -0.06976,0.05369 -0.141619,0.105018 -0.216797,0.152343 -0.07518,0.04733 -0.152292,0.09033 -0.232421,0.13086 -0.08013,0.04053 -0.163433,0.07804 -0.248047,0.111328 -0.08461,0.03329 -0.171133,0.06227 -0.259766,0.08789 -0.08863,0.02562 -0.1793,0.04889 -0.271484,0.06641 -0.09219,0.01752 -0.18598,0.03009 -0.28125,0.03906 C 28.367621,14.995304 28.271717,15 28.173828,15 H 3.8261719 C 3.7282829,15 3.6323793,14.9953 3.5371094,14.98633 3.4418394,14.97733 3.348044,14.96479 3.2558594,14.94727 3.1636744,14.92975 3.0730078,14.90649 2.984375,14.88086 2.895742,14.85524 2.8092238,14.82626 2.7246094,14.79297 2.6399954,14.75968 2.5566919,14.72217 2.4765625,14.681642 c -0.080129,-0.04053 -0.1572441,-0.08353 -0.2324219,-0.13086 -0.075178,-0.04733 -0.1470372,-0.09866 -0.2167968,-0.152343 -0.06976,-0.05369 -0.137297,-0.110306 -0.2011719,-0.169922 -0.063875,-0.05962 -0.1241171,-0.122391 -0.1816407,-0.1875 -0.057524,-0.06511 -0.1114036,-0.132959 -0.1621093,-0.203125 -0.050706,-0.07017 -0.099157,-0.14201 -0.1425781,-0.216797 -0.043421,-0.07479 -0.083471,-0.151496 -0.1191407,-0.230469 -0.03567,-0.07897 -0.066297,-0.159464 -0.09375,-0.242187 -0.027452,-0.08272 -0.051544,-0.167868 -0.070312,-0.253907 -0.018768,-0.08604 -0.033351,-0.1728 -0.042969,-0.261719 C 1.0040545,12.543894 1,12.452691 1,12.361328 V 3.6386719 C 1,3.5473089 1.00405,3.4561061 1.013672,3.3671875 1.023292,3.2782685 1.037872,3.1915077 1.056641,3.1054688 1.075409,3.0194298 1.099501,2.9342864 1.126953,2.8515625 1.154406,2.7688385 1.185033,2.6883484 1.220703,2.609375 1.256373,2.530402 1.296423,2.4536937 1.3398437,2.3789062 c 0.043421,-0.074787 0.091872,-0.1466309 0.1425781,-0.2167968 0.050706,-0.070166 0.1045858,-0.138016 0.1621093,-0.203125 0.057524,-0.065109 0.1177658,-0.1278834 0.1816407,-0.1875 0.063875,-0.059617 0.1314122,-0.1162332 0.2011719,-0.1699219 0.06976,-0.053689 0.141619,-0.1050184 0.2167968,-0.1523437 0.075178,-0.047325 0.1522925,-0.090333 0.2324219,-0.1308594 0.080129,-0.040527 0.1634325,-0.078036 0.2480469,-0.1113282 0.084614,-0.033292 0.1711328,-0.062268 0.2597656,-0.087891 0.088633,-0.025622 0.1792997,-0.048889 0.2714844,-0.066406 0.092185,-0.017517 0.1859801,-0.030086 0.28125,-0.039063 C 3.6323793,1.0046956 3.7282833,1 3.8261719,1 Z"
       transform="translate(0,1036.3622)" />
    <rect
       style="opacity:1;fill:#000000;stroke-width:3.18342"
       id="rect1560"
       width="12"
       height="12"
       x="2"
       y="1038.3622"
       rx="2.5779305"
       ry="2.5779305" />
  </g>
</svg>
