<?xml version="1.0" encoding="UTF-8" standalone="no"?>
<svg
   inkscape:version="1.1.1 (3bf5ae0d25, 2021-09-20, custom)"
   sodipodi:docname="button.svg"
   id="svg4"
   version="1.1"
   viewBox="0 0 29 29"
   height="29"
   width="29"
   xmlns:inkscape="http://www.inkscape.org/namespaces/inkscape"
   xmlns:sodipodi="http://sodipodi.sourceforge.net/DTD/sodipodi-0.dtd"
   xmlns="http://www.w3.org/2000/svg"
   xmlns:svg="http://www.w3.org/2000/svg"
   xmlns:rdf="http://www.w3.org/1999/02/22-rdf-syntax-ns#"
   xmlns:cc="http://creativecommons.org/ns#"
   xmlns:dc="http://purl.org/dc/elements/1.1/">
  <metadata
     id="metadata10">
    <rdf:RDF>
      <cc:Work
         rdf:about="">
        <dc:format>image/svg+xml</dc:format>
        <dc:type
           rdf:resource="http://purl.org/dc/dcmitype/StillImage" />
      </cc:Work>
    </rdf:RDF>
  </metadata>
  <defs
     id="defs8" />
  <sodipodi:namedview
     inkscape:document-rotation="0"
     inkscape:current-layer="svg4"
     inkscape:window-maximized="1"
     inkscape:window-y="24"
     inkscape:window-x="0"
     inkscape:cy="17.437972"
     inkscape:cx="16.826744"
     inkscape:zoom="13.906434"
     showgrid="false"
     id="namedview6"
     inkscape:window-height="1018"
     inkscape:window-width="1920"
     inkscape:pageshadow="2"
     inkscape:pageopacity="0"
     guidetolerance="10"
     gridtolerance="10"
     objecttolerance="10"
     borderopacity="1"
     bordercolor="#666666"
     pagecolor="#ffffff"
     inkscape:pagecheckerboard="0"
     width="128px" />
  <path
     id="rect817"
     style="opacity:1;fill:#808080;fill-opacity:1;fill-rule:evenodd;stroke:none;stroke-width:2.18257;stroke-linejoin:round;stroke-miterlimit:4;stroke-dasharray:none;stroke-opacity:1;paint-order:stroke fill markers"
     d="M 4.2645671,0 C 4.1168723,0 3.9717058,0.0067295 3.8279623,0.0212402 3.6842186,0.0357511 3.542246,0.0590034 3.4031575,0.0873209 3.264069,0.1156386 3.1286026,0.1497417 2.994873,0.1911621 2.8611435,0.2325826 2.7307753,0.2813045 2.6031087,0.3351238 2.4754421,0.388943 2.3511242,0.4489716 2.2302246,0.5144857 2.109325,0.5799998 1.9920094,0.650383 1.8785807,0.726888 1.765152,0.803393 1.6534308,0.885539 1.5481771,0.9723307 1.4429234,1.0591225 1.3424684,1.1497191 1.2460938,1.2460938 1.1497191,1.3424684 1.0591225,1.4429234 0.9723307,1.5481771 0.885539,1.6534308 0.803393,1.765152 0.726888,1.8785807 0.650383,1.9920094 0.5799998,2.109325 0.5144857,2.2302246 0.4489716,2.3511242 0.388943,2.4754421 0.3351238,2.6031087 0.2813045,2.7307753 0.2325826,2.8611435 0.1911621,2.994873 0.1497417,3.1286026 0.1156386,3.264069 0.0873209,3.4031575 0.0590034,3.542246 0.0357511,3.6842186 0.0212402,3.8279623 0.0067295,3.9717058 0,4.1168723 0,4.2645671 V 24.735433 c 0,0.147695 0.00673,0.292861 0.02124,0.436605 0.014511,0.143743 0.037763,0.285716 0.06608,0.424804 0.028318,0.13909 0.062421,0.274555 0.1038415,0.408284 0.04142,0.133731 0.090143,0.264099 0.1439616,0.391765 0.053819,0.127667 0.1138478,0.251984 0.1793619,0.372884 0.065514,0.1209 0.1358974,0.238216 0.2124024,0.351644 0.076505,0.113428 0.1586509,0.225149 0.2454427,0.330404 0.086792,0.105259 0.1773883,0.205709 0.2737631,0.302084 0.096375,0.09638 0.1968295,0.186971 0.3020833,0.273762 0.1052539,0.0868 0.2169749,0.168938 0.3304036,0.245444 0.1134286,0.07651 0.2307443,0.146887 0.3516439,0.212401 0.1208996,0.06552 0.2452175,0.125542 0.3728841,0.179362 0.1276666,0.05382 0.2580348,0.102542 0.3917642,0.143962 0.1337297,0.04142 0.2691961,0.07552 0.4082846,0.103842 C 3.5422454,28.941 3.684218,28.96425 3.8279617,28.97876 3.9717058,28.993271 4.1168723,29 4.2645671,29 H 24.735433 c 0.147695,0 0.292861,-0.0068 0.436605,-0.02123 0.143743,-0.01451 0.285716,-0.03777 0.424804,-0.06608 0.13909,-0.02831 0.274555,-0.06242 0.408284,-0.103842 0.133731,-0.04142 0.264099,-0.09015 0.391765,-0.143962 0.127667,-0.05382 0.251984,-0.113848 0.372884,-0.179362 0.1209,-0.06552 0.238216,-0.135897 0.351644,-0.212402 0.113428,-0.07651 0.225149,-0.158651 0.330404,-0.245444 0.105259,-0.0868 0.205709,-0.177387 0.302084,-0.273762 0.09638,-0.09638 0.186971,-0.196829 0.273762,-0.302083 0.0868,-0.105259 0.168938,-0.216976 0.245444,-0.330405 0.07651,-0.113427 0.146887,-0.230743 0.212401,-0.351643 0.06552,-0.1209 0.125542,-0.245218 0.179362,-0.372884 0.05382,-0.127667 0.102542,-0.258035 0.143962,-0.391765 0.04142,-0.133729 0.07552,-0.269195 0.103842,-0.408284 0.02832,-0.139088 0.05157,-0.281061 0.06608,-0.424805 C 28.993271,25.028294 29,24.883128 29,24.735433 V 4.2645671 C 29,4.1168723 28.993233,3.9717058 28.978766,3.8279623 28.964249,3.6842186 28.940997,3.542246 28.912679,3.4031575 28.884361,3.264069 28.850259,3.1286026 28.808838,2.994873 28.767418,2.8611435 28.718695,2.7307753 28.664876,2.6031087 28.611056,2.4754421 28.551028,2.3511242 28.485514,2.2302246 28.42,2.109325 28.349617,1.9920094 28.273113,1.8785807 28.196607,1.765152 28.114461,1.6534308 28.027669,1.5481771 27.940878,1.4429234 27.850281,1.3424684 27.753907,1.2460938 27.657532,1.1497191 27.557077,1.0591225 27.451823,0.9723307 27.346568,0.885539 27.234847,0.803393 27.121419,0.726888 27.007991,0.650383 26.890675,0.5799998 26.769775,0.5144857 26.648875,0.4489716 26.524558,0.388943 26.396891,0.3351238 26.269225,0.2813045 26.138857,0.2325826 26.005126,0.1911621 25.871397,0.1497417 25.735932,0.1156386 25.596842,0.0873209 25.457754,0.0590034 25.315781,0.0357511 25.172038,0.0212402 25.028294,0.0067295 24.883128,0 24.735433,0 Z" />
</svg>
